<?xml version="1.0" encoding="UTF-8"?><svg id="a" xmlns="http://www.w3.org/2000/svg" viewBox="0 0 100 100"><path d="M27.41,47.91c.09-8.06,5.51-15,13.31-16.96,9.91-2.49,19.86,4.08,21.48,14.19,.63,3.91,0,7.63-1.89,11.11-.22,.41-.15,.62,.15,.92,2.99,2.97,5.98,5.96,8.96,8.95,1.72,1.73,1.9,4.27,.46,6.04-1.72,2.12-4.71,2.25-6.7,.28-2.97-2.95-5.93-5.91-8.87-8.89-.4-.4-.66-.45-1.17-.18-10.44,5.53-23.24-.66-25.38-12.28-.19-1.04-.23-2.12-.34-3.18Zm1.78,0c-.02,8.67,7.06,15.75,15.75,15.77,8.61,.02,15.75-7.09,15.77-15.7,.02-8.7-7.04-15.8-15.7-15.82-8.72-.02-15.8,7.03-15.82,15.75Zm26.17,14.26c2.43,2.43,4.92,4.92,7.41,7.41,.62,.62,1.21,1.27,1.87,1.84,.85,.74,1.85,.89,2.89,.42,1.73-.77,2.14-3.02,.79-4.39-3.01-3.03-6.04-6.05-9.06-9.07-.05-.05-.11-.08-.06-.05l-3.83,3.83Z"/><path d="M33.36,47.89c.03-3.05,1.08-5.7,3.16-7.93,.18-.19,.43-.37,.68-.45,.37-.12,.69,.05,.89,.38,.22,.35,.17,.7-.09,1.02-.4,.49-.84,.94-1.19,1.46-2.63,3.82-2.22,8.93,.96,12.31,.08,.09,.17,.18,.25,.27,.31,.41,.29,.86-.05,1.18-.33,.32-.89,.35-1.22-.03-.55-.63-1.11-1.26-1.57-1.96-1.23-1.89-1.82-3.99-1.81-6.25Z"/></svg>