<?xml version="1.0" encoding="UTF-8"?><svg id="a" xmlns="http://www.w3.org/2000/svg" viewBox="0 0 100 100"><path d="M57.79,28.19c.93-1.03,1.99-1.74,3.28-2.07,2.45-.63,5.16,.36,6.61,2.45,1.52,2.19,1.61,4.45,.25,6.76-1.1,1.87-2.56,3.43-4.13,4.91-1.8,1.7-3.74,3.24-5.77,4.67-.14,.1-.24,.16-.42,.03-2.72-1.95-5.32-4.04-7.59-6.52-.93-1.02-1.76-2.11-2.46-3.31-2.19-3.72,.25-8.1,3.95-9,2.22-.54,4.15,.03,5.83,1.56,.08,.07,.15,.15,.23,.23,.07,.08,.14,.16,.23,.27Zm.01,2.75c-.27-.44-.5-.84-.76-1.23-1.76-2.69-5.53-2.97-7.6-.51-1.18,1.4-1.5,2.99-.71,4.71,.45,.98,1.06,1.85,1.76,2.66,2.09,2.44,4.52,4.5,7.1,6.39,.2,.15,.32,.06,.47-.05,2.06-1.49,4.01-3.12,5.77-4.96,1.17-1.22,2.27-2.49,3.01-4.04,.41-.86,.54-1.74,.33-2.68-.42-1.93-1.92-3.33-3.97-3.68-1.77-.31-3.73,.61-4.71,2.21-.23,.37-.45,.74-.7,1.16Z"/><path d="M61.06,53.75c1.9-1.73,3.77-3.44,5.64-5.13,1.64-1.49,3.87-1.73,5.68-.63,1.63,.99,1.87,2.67,.53,4.02-3.18,3.2-6.37,6.41-9.58,9.58-1.55,1.53-3.58,2.04-5.63,2.46-3.38,.7-6.8,.68-10.23,.59-2.24-.05-3.72,.65-5.19,2.38,1.05,2.04,.96,2.6-.71,4.26-.68,.68-1.34,1.37-2.04,2.03-1.06,1-2.4,1.03-3.43,0-3.05-3.02-6.09-6.05-9.11-9.1-1.01-1.02-1-2.37,0-3.43,.86-.91,1.75-1.78,2.65-2.65,.72-.7,1.53-.96,2.55-.66,.29,.08,.74-.06,.99-.26,1.62-1.3,3.26-2.6,4.8-3.99,2.85-2.58,6.18-3.03,9.68-2.03,2.2,.63,4.38,.82,6.62,.78,.9-.02,1.8,.03,2.69-.01,1.65-.08,3,.52,4.11,1.8Zm-19.95,12.15c.08-.07,.2-.16,.31-.27,1.76-1.86,3.91-2.58,6.47-2.56,2.87,.02,5.76-.12,8.62-.39,2.03-.19,4.11-.63,5.65-2.12,3.27-3.16,6.46-6.41,9.66-9.63,.63-.64,.52-1.16-.25-1.63-1.19-.73-2.67-.59-3.81,.43-1.88,1.69-3.74,3.4-5.59,5.13-.2,.19-.37,.53-.36,.79,.14,2.16-.75,3.16-2.93,3.16-2.91,0-5.83,0-8.74,0-1.41,0-2.82,0-4.23,0-.53,0-1.05-.22-.91-.82,.07-.29,.57-.61,.92-.68,.59-.11,1.21-.03,1.82-.03,3.75,0,7.49,0,11.24,0,1.21,0,1.55-.48,1.23-1.65-.34-1.28-1.43-2.11-2.84-2.13-1.76-.02-3.53,.06-5.28-.03-1.2-.06-2.43-.18-3.57-.52-3.71-1.13-7.09-1-10.07,1.86-1.44,1.38-3.05,2.59-4.61,3.9,2.47,2.45,4.86,4.81,7.28,7.2Zm-9.7-7.1c-.26,.15-.49,.22-.64,.37-.89,.87-1.78,1.75-2.65,2.64-.51,.52-.38,1.02,.1,1.5,2.92,2.92,5.84,5.83,8.75,8.75,.57,.57,1.08,.58,1.65,0,.76-.78,1.53-1.55,2.31-2.31,.6-.58,.62-1.13,.03-1.73-2.9-2.89-5.79-5.79-8.69-8.68-.24-.23-.56-.38-.85-.56Z"/></svg>