<?xml version="1.0" encoding="UTF-8"?><svg id="a" xmlns="http://www.w3.org/2000/svg" viewBox="0 0 100 100"><path d="M52.86,73.23c-3.81,0-7.62,0-11.42,0-4.95,0-7.79-4.74-5.39-9.07,3.45-6.22,6.98-12.41,10.45-18.62,.23-.42,.37-.95,.38-1.43,.03-2.93,0-5.85,.03-8.78,0-.5-.1-.81-.56-1.09-.97-.59-1.36-1.71-1.06-2.73,.32-1.11,1.2-1.9,2.33-1.91,3.49-.03,6.99-.03,10.49,0,1.13,0,2.02,.79,2.34,1.91,.29,1.03-.09,2.14-1.06,2.73-.46,.28-.57,.59-.56,1.09,.02,2.93,0,5.85,.03,8.78,0,.48,.14,1.01,.37,1.44,3.45,6.19,6.94,12.36,10.4,18.55,1.63,2.92,1.01,6.1-1.51,7.98-1.06,.79-2.26,1.17-3.57,1.17-3.89,0-7.79,0-11.68,0Zm-11.93-14.26c.06-.07,.02-.03,0,.01-1.12,1.97-2.24,3.94-3.34,5.92-1.81,3.25,.18,6.62,3.9,6.62,7.58,0,15.16,0,22.74,0,3.77,0,5.73-3.38,3.88-6.68-1.47-2.62-2.96-5.23-4.4-7.86-.32-.58-.72-.77-1.34-.82-3.05-.25-5.9,.39-8.62,1.79-2.25,1.16-4.68,1.78-7.21,1.67-1.82-.08-3.64-.41-5.6-.65Zm7.66-24.28c0,3.31,.02,6.52-.02,9.72,0,.56-.16,1.18-.43,1.68-1.9,3.45-3.85,6.88-5.78,10.31-.14,.25-.27,.52-.4,.79,3.22,1.17,7.26,.91,10.54-.51,1.71-.74,3.45-1.46,5.24-1.92,1.39-.36,2.89-.31,4.4-.44-.12-.23-.24-.48-.37-.72-1.43-2.55-2.88-5.08-4.28-7.65-.22-.4-.35-.9-.35-1.36-.03-2.98-.02-5.97-.02-8.95v-.95c-.3,0-.49,0-.69,0-.56,0-.98-.25-.99-.82-.01-.62,.42-.88,1.02-.88,.45,0,.91,0,1.36,0,.56,0,.97-.27,.97-.84,0-.57-.39-.86-.95-.86-3.32,0-6.65,0-9.97,0-.56,0-.96,.28-.96,.85,0,.57,.4,.84,.96,.85,.48,0,.97,0,1.45,0,.57,.01,1.02,.31,.92,.86-.06,.32-.54,.6-.88,.82-.16,.1-.44,.02-.77,.02Z"/><path d="M54.53,68.12c-2.7,0-5.4,0-8.09,0-.63,0-1.22-.1-1.23-.84-.01-.74,.56-.87,1.19-.87,5.42,0,10.85,0,16.27,0,.63,0,1.22,.1,1.23,.84,0,.8-.63,.88-1.28,.87-2.7-.01-5.4,0-8.09,0Z"/><path d="M50.11,53.85c-1.35,0-2.45-1.1-2.45-2.45s1.1-2.45,2.45-2.45,2.45,1.1,2.45,2.45-1.1,2.45-2.45,2.45Zm0-3.88c-.79,0-1.43,.64-1.43,1.43s.64,1.43,1.43,1.43,1.43-.64,1.43-1.43-.64-1.43-1.43-1.43Z"/><path d="M60.2,63.28c-.77,0-1.4-.63-1.4-1.4s.63-1.4,1.4-1.4,1.4,.63,1.4,1.4-.63,1.4-1.4,1.4Zm0-1.94c-.3,0-.54,.24-.54,.54s.24,.54,.54,.54,.54-.24,.54-.54-.24-.54-.54-.54Z"/></svg>