<?xml version="1.0" encoding="UTF-8"?><svg xmlns="http://www.w3.org/2000/svg" viewBox="0 0 100 100"><path d="M42.48,50.99c1.09-1.48,2.1-2.99,3.26-4.38,3.58-4.27,8.14-7.13,13.32-9.04,.62-.23,1.16,0,1.38,.53,.23,.55-.03,1.1-.67,1.35-2.44,.91-4.76,2.04-6.93,3.49-5.37,3.6-8.9,8.59-11.01,14.64-1.22,3.5-1.91,7.12-2.21,10.81-.06,.69-.1,1.39-.18,2.08-.07,.65-.53,1.06-1.07,1-.57-.06-.96-.52-.92-1.16,.37-5.86,1.4-11.56,3.94-16.91,.07-.15,.14-.3,.2-.44-2.69-2.59-4.3-5.68-4-9.46,.41-5.13,2.78-9.14,7.42-11.61,3.34-1.78,6.89-2.87,10.69-3.16,4.29-.33,8.57-.22,12.8,.49,2.69,.46,5.33,1.19,8.1,1.82-.32,1.79-.57,3.48-.94,5.15-.83,3.76-2.04,7.39-3.82,10.81-2.74,5.27-7.12,8.4-12.89,9.65-3.11,.68-6.24,.68-9.39,.37-.25-.03-.51-.02-.77-.05-.62-.08-1.06-.56-1.01-1.09,.06-.59,.55-.95,1.22-.91,1.35,.09,2.7,.22,4.05,.24,3.35,.05,6.59-.48,9.64-1.93,3.89-1.85,6.46-4.93,8.15-8.82,1.56-3.62,2.72-7.36,3.38-11.24,.08-.45,.03-.68-.5-.79-2.31-.46-4.59-1.1-6.91-1.44-2.92-.42-5.87-.45-8.82-.39-3.88,.07-7.55,.91-11.07,2.54-4.13,1.91-6.53,5.1-7.26,9.57-.48,2.94,.67,6.27,2.83,8.29Z"/></svg>